# xmcd
#
# Track frame offsets: 
#        150
#        32655
#        76337
#        108399
#        159644
#        189625
#        246350
#        283061
#
# Disc length: 4236 seconds
#
# Revision: 0
# Processed by: cddbd v1.5.2PL0 Copyright (c) Steve Scherf et al.
# Submitted via: ExactAudioCopy v0.99pb4
#
DISCID=69108a08
DTITLE=Andy Aledort and the Groove Kings - Live at Northstar 2009
DYEAR=2010
DGENRE=Blues/Rock
TTITLE0=Big Leg Woman
TTITLE1=Right By Your Side
TTITLE2=I Don't Need No Doctor
TTITLE3=Gambler's Blues
TTITLE4=Wrapped Up in Love Again
TTITLE5=Bending Like a Willow Tree
TTITLE6=Last Night
TTITLE7=Do You Have a Sister
EXTD=
EXTT0=
EXTT1=
EXTT2=
EXTT3=
EXTT4=
EXTT5=
EXTT6=
EXTT7=
PLAYORDER=
